<svg width="40" height="40" viewBox="0 0 40 40" fill="none" xmlns="http://www.w3.org/2000/svg">
<path d="M36.6765 14.6327L8.67807 0.628718C7.57311 0.0785786 6.32543 -0.117275 5.10513 0.0678607C3.88484 0.252996 2.75131 0.81011 1.8591 1.66325C0.966896 2.51638 0.359428 3.62402 0.119521 4.83514C-0.120386 6.04627 0.0189434 7.30194 0.518513 8.43095L5.31825 19.174C5.42716 19.4338 5.48325 19.7126 5.48325 19.9943C5.48325 20.2759 5.42716 20.5548 5.31825 20.8145L0.518513 31.5576C0.111936 32.4713 -0.0599436 33.4721 0.0184949 34.4692C0.0969334 35.4662 0.423203 36.4278 0.967653 37.2666C1.5121 38.1054 2.25747 38.7949 3.13602 39.2722C4.01456 39.7496 4.99844 39.9998 5.99822 40C6.93463 39.9907 7.85709 39.7719 8.69807 39.3598L36.6965 25.3558C37.6897 24.856 38.5245 24.0901 39.1078 23.1433C39.6911 22.1966 40 21.1064 40 19.9943C40 18.8822 39.6911 17.7919 39.1078 16.8452C38.5245 15.8985 37.6897 15.1325 36.6965 14.6327H36.6765ZM34.8966 21.7748L6.89817 35.7788C6.53051 35.9554 6.11767 36.0153 5.715 35.9505C5.31234 35.8858 4.93909 35.6994 4.64531 35.4164C4.35154 35.1334 4.15128 34.7673 4.07138 34.3672C3.99149 33.9672 4.03578 33.5522 4.19831 33.178L8.97805 22.435C9.03993 22.2915 9.09335 22.1446 9.13805 21.9948H22.9173C23.4477 21.9948 23.9564 21.7841 24.3314 21.4089C24.7065 21.0337 24.9172 20.5249 24.9172 19.9943C24.9172 19.4637 24.7065 18.9548 24.3314 18.5797C23.9564 18.2045 23.4477 17.9937 22.9173 17.9937H9.13805C9.09335 17.844 9.03993 17.697 8.97805 17.5536L4.19831 6.81049C4.03578 6.43631 3.99149 6.02136 4.07138 5.62129C4.15128 5.22121 4.35154 4.85514 4.64531 4.57214C4.93909 4.28915 5.31234 4.10277 5.715 4.038C6.11767 3.97323 6.53051 4.03315 6.89817 4.20974L34.8966 18.2138C35.2242 18.3816 35.4991 18.6367 35.6911 18.9509C35.8831 19.265 35.9847 19.6261 35.9847 19.9943C35.9847 20.3625 35.8831 20.7235 35.6911 21.0377C35.4991 21.3518 35.2242 21.6069 34.8966 21.7748Z" fill="#FFF9F9" fill-opacity="0.65"/>
</svg>
